# xmcd
#
# Track frame offsets:
#	150
#	18891
#	42507
#	61128
#
# Disc length: 1126 seconds
#
# Revision: 1
# Processed by: cddbd v1.5.1PL0 Copyright (c) Steve Scherf et al.
# Submitted via: CDex 1.50Beta5
#
DISCID=29046404
DTITLE=Pink Lady - PINK EYED SOUL
DYEAR=1900
DGENRE=Pop
TTITLE0=PINK EYED SOUL
TTITLE1=BEST PARTNER
TTITLE2=PINK EYED SOUL (オリジナル・カラオケ)
TTITLE3=BEST PARTNER (オリジナル・カラオケ)
EXTD=ビクターエンターテインメント
EXTT0=
EXTT1=
EXTT2=
EXTT3=
PLAYORDER=
